<!-- Generated by IcoMoon.io -->
<svg version="1.1" xmlns="http://www.w3.org/2000/svg" width="25" height="32" viewBox="0 0 25 32">
<title>ion-android-star-outline</title>
<path d="M25.25 13.125l-6.875 6 2.063 8.875-7.813-4.688-7.813 4.688 2.063-8.875-6.875-6 9.063-0.75 3.563-8.375 3.563 8.375zM13.688 21.563l3.75 2.25-1-4.25-0.313-1.188 0.938-0.75 3.313-2.875-4.375-0.375-1.188-0.125-0.5-1.125-1.688-4-1.688 4-0.5 1.125-1.188 0.125-4.375 0.375 3.313 2.875 0.938 0.75-0.313 1.188-1 4.25 3.75-2.25 1.063-0.625z"></path>
</svg>
